<?xml version="1.0" encoding="UTF-8" standalone="no"?>
<!-- Generator: Adobe Illustrator 24.2.0, SVG Export Plug-In . SVG Version: 6.00 Build 0)  -->

<svg
   version="1.1"
   id="Layer_1"
   x="0px"
   y="0px"
   viewBox="0 0 833 89.8"
   style="enable-background:new 0 0 833 89.8;"
   xml:space="preserve"
   sodipodi:docname="header-utfpr.svg"
   inkscape:version="1.1.2 (0a00cf5339, 2022-02-04)"
   xmlns:inkscape="http://www.inkscape.org/namespaces/inkscape"
   xmlns:sodipodi="http://sodipodi.sourceforge.net/DTD/sodipodi-0.dtd"
   xmlns:xlink="http://www.w3.org/1999/xlink"
   xmlns="http://www.w3.org/2000/svg"
   xmlns:svg="http://www.w3.org/2000/svg"><defs
   id="defs87"><linearGradient
   inkscape:collect="always"
   id="linearGradient1173"><stop
     style="stop-color:#fff6d5;stop-opacity:1;"
     offset="0"
     id="stop1169" /><stop
     style="stop-color:#ffccaa;stop-opacity:1"
     offset="1"
     id="stop1171" /></linearGradient><style
   type="text/css"
   id="style1003">
   <![CDATA[
    .fil0 {fill:#373435}
    .fil1 {fill:#FFCC29}
    .fil2 {fill:#373435;fill-rule:nonzero}
    .fil3 {fill:#FFCC29;fill-rule:nonzero}
   ]]>
  </style><linearGradient
   inkscape:collect="always"
   xlink:href="#linearGradient1173"
   id="linearGradient1175"
   x1="0.15000001"
   y1="45.992418"
   x2="836.0991"
   y2="45.992418"
   gradientUnits="userSpaceOnUse" />
	
	

		
		
		
	
			
			
			
			
			
		</defs><sodipodi:namedview
   id="namedview85"
   pagecolor="#ffffff"
   bordercolor="#666666"
   borderopacity="1.0"
   inkscape:pageshadow="2"
   inkscape:pageopacity="0.0"
   inkscape:pagecheckerboard="0"
   showgrid="false"
   inkscape:zoom="1.294162"
   inkscape:cx="629.36479"
   inkscape:cy="7.7270078"
   inkscape:window-width="1920"
   inkscape:window-height="947"
   inkscape:window-x="0"
   inkscape:window-y="32"
   inkscape:window-maximized="1"
   inkscape:current-layer="Layer_1" />
<style
   type="text/css"
   id="style2">
	.st0{fill:#232E35;}
	.st1{fill:#9365C9;}
	.st2{fill:#BCBBBC;}
	.st3{fill:#9468CC;}
	.st4{fill:#B4B3B4;}
	.st5{fill:#FFFFFF;}
</style>
<rect
   x="0.15000001"
   y="-0.49000001"
   class="st0"
   width="835.94897"
   height="92.964836"
   id="rect4"
   style="fill:url(#linearGradient1175);fill-opacity:1;stroke:none;stroke-width:1.02337" />
<g
   style="clip-rule:evenodd;fill-rule:evenodd;image-rendering:optimizeQuality;shape-rendering:geometricPrecision;text-rendering:geometricPrecision"
   id="g1051"
   transform="matrix(0.01719931,0,0,0.01719931,7.2019372,2.080017)"><g
     id="Camada_x0020_1"
     inkscape:label="Camada 1"
     inkscape:groupmode="layer">
  <metadata
   id="CorelCorpID_0Corel-Layer" />
  <g
   id="_304389040">
   <polygon
   class="fil0"
   points="5064,2931 5064,1646 5996,1646 5996,1184 4512,1184 4512,2931 "
   id="polygon1008" />
   <path
   class="fil0"
   d="m 1809,0 v 1691 c 0,499 -160,826 -608,826 -449,0 -609,-327 -609,-826 V 0 H 5 v 1871 c 0,784 445,1107 1196,1107 750,0 1195,-323 1195,-1107 V 461 h 679 v 2467 h 587 V 461 H 5999 V 0 Z"
   id="path1010" />
   <path
   class="fil0"
   d="m 0,3141 h 51 v 138 c 0,22 1,36 2,42 2,11 7,19 15,25 9,7 20,10 34,10 15,0 26,-3 33,-9 7,-6 12,-13 13,-22 2,-9 2,-23 2,-43 v -141 h 51 v 134 c 0,30 -1,52 -4,64 -3,13 -8,24 -15,32 -7,9 -17,16 -30,21 -12,5 -28,8 -48,8 -24,0 -43,-3 -55,-9 -13,-5 -22,-13 -30,-22 -7,-9 -12,-18 -14,-28 -3,-14 -5,-36 -5,-64 z m 256,254 v -254 h 49 l 104,170 v -170 h 47 v 254 H 405 L 303,3229 v 166 z m 252,0 v -254 h 51 v 254 z m 164,0 -90,-254 h 55 l 64,188 62,-188 h 54 l -90,254 z m 171,0 v -254 h 188 v 43 H 894 v 56 h 127 v 43 H 894 v 69 h 141 v 43 z m 236,0 v -254 h 107 c 27,0 47,2 59,7 12,4 22,13 29,24 8,12 11,25 11,40 0,19 -5,35 -16,48 -11,12 -28,20 -50,23 11,7 20,14 27,21 7,8 17,22 29,42 l 31,49 h -61 l -37,-55 c -13,-20 -22,-32 -27,-37 -5,-6 -10,-9 -15,-11 -5,-2 -14,-3 -26,-3 h -10 v 106 z m 51,-146 h 38 c 24,0 39,-1 45,-4 7,-2 11,-5 15,-10 3,-5 5,-12 5,-19 0,-9 -2,-16 -7,-21 -4,-5 -11,-9 -19,-10 -4,-1 -17,-1 -37,-1 h -40 z m 191,64 49,-5 c 3,16 9,29 18,37 10,8 22,11 37,11 17,0 29,-3 37,-10 9,-7 13,-15 13,-25 0,-6 -2,-11 -5,-15 -4,-4 -10,-8 -19,-11 -6,-2 -19,-6 -40,-11 -28,-7 -47,-15 -58,-25 -15,-14 -23,-31 -23,-51 0,-13 3,-25 11,-37 7,-11 18,-20 31,-26 14,-5 30,-8 50,-8 32,0 55,7 72,21 16,14 24,32 25,56 l -51,2 c -2,-13 -7,-23 -14,-28 -7,-6 -18,-9 -33,-9 -14,0 -26,3 -34,9 -6,4 -8,10 -8,16 0,6 2,11 7,16 6,5 22,11 47,17 25,5 43,12 55,18 12,6 21,15 28,26 7,11 10,24 10,40 0,15 -4,28 -12,41 -8,13 -19,22 -34,29 -15,6 -33,9 -55,9 -32,0 -57,-8 -74,-22 -17,-15 -27,-37 -30,-65 z m 246,82 v -254 h 51 v 254 z m 100,-254 h 93 c 21,0 37,2 48,5 15,4 28,12 38,23 11,11 19,25 24,41 6,17 9,37 9,61 0,21 -3,39 -8,54 -7,18 -16,33 -27,45 -9,8 -21,15 -36,20 -11,4 -26,5 -45,5 h -96 z m 51,43 v 168 h 38 c 14,0 24,0 31,-2 8,-2 15,-6 20,-11 6,-4 10,-13 14,-24 3,-11 5,-27 5,-47 0,-19 -2,-34 -5,-45 -4,-10 -9,-19 -15,-25 -6,-5 -14,-9 -23,-12 -8,-1 -22,-2 -42,-2 z m 432,211 h -56 l -22,-57 h -101 l -21,57 h -54 l 98,-254 h 54 z m -94,-100 -35,-95 -34,95 z m 120,-154 h 94 c 21,0 37,2 48,5 15,4 27,12 38,23 10,11 18,25 24,41 5,17 8,37 8,61 0,21 -2,39 -8,54 -6,18 -15,33 -27,45 -8,8 -20,15 -35,20 -12,4 -27,5 -46,5 h -96 z m 51,43 v 168 h 38 c 15,0 25,0 31,-2 9,-2 15,-6 21,-11 5,-4 10,-13 13,-24 4,-11 5,-27 5,-47 0,-19 -1,-34 -5,-45 -3,-10 -8,-19 -14,-25 -6,-5 -14,-9 -24,-12 -7,-1 -21,-2 -42,-2 z m 204,211 v -254 h 188 v 43 h -137 v 56 h 127 v 43 h -127 v 69 h 141 v 43 z m 391,0 v -211 h -75 v -43 h 200 v 43 h -74 v 211 z m 158,0 v -254 h 188 v 43 h -137 v 56 h 127 v 43 h -127 v 69 h 141 v 43 z m 397,-93 50,16 c -8,27 -20,48 -38,61 -18,14 -40,21 -67,21 -34,0 -61,-12 -83,-35 -21,-23 -32,-55 -32,-95 0,-42 11,-75 32,-98 22,-24 51,-35 86,-35 31,0 56,9 75,27 12,11 20,27 26,47 l -50,12 c -3,-13 -10,-23 -19,-31 -10,-8 -21,-11 -35,-11 -18,0 -34,6 -45,20 -12,13 -18,35 -18,66 0,32 6,55 18,68 11,14 26,21 44,21 14,0 26,-5 35,-13 10,-9 17,-23 21,-41 z m 94,93 v -254 h 50 l 103,170 v -170 h 47 v 254 h -51 l -102,-166 v 166 z m 244,-125 c 0,-26 4,-48 12,-66 5,-12 13,-24 23,-34 10,-11 21,-18 33,-23 15,-7 34,-10 54,-10 37,0 67,11 89,35 23,23 34,55 34,96 0,42 -11,74 -33,97 -22,23 -52,35 -89,35 -38,0 -68,-12 -90,-35 -22,-23 -33,-55 -33,-95 z m 53,-2 c 0,29 6,51 19,66 14,14 30,22 51,22 20,0 37,-8 50,-22 13,-15 19,-37 19,-67 0,-29 -6,-51 -19,-65 -12,-14 -29,-21 -50,-21 -21,0 -38,7 -51,21 -13,15 -19,37 -19,66 z m 233,127 v -252 h 51 v 209 h 127 v 43 z m 204,-125 c 0,-26 4,-48 12,-66 5,-12 13,-24 23,-34 10,-11 21,-18 33,-23 15,-7 34,-10 54,-10 37,0 67,11 90,35 22,23 33,55 33,96 0,42 -11,74 -33,97 -22,23 -52,35 -89,35 -38,0 -68,-12 -90,-35 -22,-23 -33,-55 -33,-95 z m 53,-2 c 0,29 6,51 19,66 14,14 30,22 51,22 20,0 37,-8 50,-22 13,-15 19,-37 19,-67 0,-29 -6,-51 -19,-65 -12,-14 -29,-21 -50,-21 -21,0 -38,7 -51,21 -13,15 -19,37 -19,66 z m 38,-142 24,-51 h 54 l -47,51 z m 311,176 v -43 h 110 v 101 c -10,11 -26,20 -46,28 -20,8 -41,12 -62,12 -26,0 -49,-6 -69,-17 -20,-11 -34,-27 -44,-48 -10,-21 -15,-43 -15,-68 0,-26 6,-50 17,-70 11,-21 27,-37 48,-48 16,-8 36,-12 60,-12 32,0 56,6 74,19 18,14 29,32 34,55 l -51,10 c -3,-13 -10,-22 -20,-30 -10,-7 -22,-10 -37,-10 -22,0 -40,7 -53,21 -13,14 -19,35 -19,63 0,30 6,53 20,68 13,15 30,23 52,23 11,0 21,-2 32,-7 11,-4 20,-9 28,-15 v -32 z m 156,93 v -254 h 51 v 254 z m 261,-93 49,16 c -7,27 -20,48 -37,61 -18,14 -40,21 -68,21 -33,0 -61,-12 -82,-35 -22,-23 -33,-55 -33,-95 0,-42 11,-75 33,-98 22,-24 50,-35 86,-35 30,0 56,9 75,27 11,11 20,27 26,47 l -51,12 c -3,-13 -9,-23 -19,-31 -9,-8 -20,-11 -34,-11 -19,0 -34,6 -46,20 -11,13 -17,35 -17,66 0,32 6,55 17,68 12,14 27,21 45,21 13,0 25,-5 35,-13 10,-9 17,-23 21,-41 z m 321,93 h -56 l -22,-57 h -101 l -20,57 h -55 l 99,-254 h 54 z m -94,-100 -35,-95 -34,95 z m 206,100 v -254 h 173 v 43 h -122 v 60 h 106 v 43 h -106 v 108 z m 215,0 v -254 h 188 v 43 h -137 v 56 h 127 v 43 h -127 v 69 h 142 v 43 z m 236,-254 h 93 c 21,0 37,2 48,5 15,4 27,12 38,23 11,11 19,25 24,41 6,17 8,37 8,61 0,21 -2,39 -7,54 -7,18 -16,33 -27,45 -9,8 -21,15 -36,20 -11,4 -27,5 -45,5 h -96 z m 51,43 v 168 h 38 c 14,0 24,0 31,-2 8,-2 15,-6 20,-11 6,-4 10,-13 13,-24 4,-11 6,-27 6,-47 0,-19 -2,-34 -6,-45 -3,-10 -8,-19 -14,-25 -6,-5 -14,-9 -24,-12 -7,-1 -21,-2 -41,-2 z m 204,211 v -254 h 187 v 43 h -136 v 56 h 126 v 43 h -126 v 69 h 141 v 43 z m 235,0 v -254 h 108 c 26,0 46,2 58,7 13,4 22,13 30,24 7,12 11,25 11,40 0,19 -6,35 -17,48 -11,12 -28,20 -50,23 11,7 20,14 27,21 8,8 17,22 29,42 l 31,49 h -61 l -37,-55 c -13,-20 -22,-32 -26,-37 -5,-6 -10,-9 -16,-11 -5,-2 -14,-3 -26,-3 h -10 v 106 z m 51,-146 h 38 c 24,0 40,-1 46,-4 6,-2 11,-5 14,-10 3,-5 5,-12 5,-19 0,-9 -2,-16 -7,-21 -4,-5 -11,-9 -19,-10 -4,-1 -16,-1 -37,-1 h -40 z m 432,146 h -56 l -22,-57 h -101 l -21,57 h -54 l 99,-254 h 53 z m -94,-100 -35,-95 -34,95 z m 122,100 v -252 h 51 v 209 h 127 v 43 z m 306,-254 h 93 c 21,0 37,2 48,5 15,4 27,12 38,23 11,11 19,25 24,41 6,17 8,37 8,61 0,21 -2,39 -7,54 -7,18 -16,33 -27,45 -9,8 -21,15 -36,20 -11,4 -27,5 -45,5 h -96 z m 51,43 v 168 h 38 c 14,0 24,0 31,-2 8,-2 15,-6 20,-11 6,-4 10,-13 14,-24 3,-11 5,-27 5,-47 0,-19 -2,-34 -5,-45 -4,-10 -9,-19 -15,-25 -6,-5 -14,-9 -24,-12 -7,-1 -21,-2 -41,-2 z m 193,86 c 0,-26 4,-48 12,-66 6,-12 13,-24 23,-34 10,-11 21,-18 33,-23 16,-7 34,-10 54,-10 38,0 67,11 90,35 22,23 33,55 33,96 0,42 -11,74 -33,97 -22,23 -52,35 -89,35 -37,0 -67,-12 -89,-35 -23,-23 -34,-55 -34,-95 z m 53,-2 c 0,29 7,51 20,66 13,14 30,22 50,22 20,0 37,-8 50,-22 13,-15 20,-37 20,-67 0,-29 -7,-51 -19,-65 -13,-14 -30,-21 -51,-21 -21,0 -38,7 -51,21 -13,15 -19,37 -19,66 z m 330,127 v -254 h 82 c 31,0 51,1 61,4 14,4 26,12 36,25 10,12 15,29 15,49 0,16 -3,29 -9,40 -5,10 -13,19 -21,25 -9,6 -18,10 -27,12 -12,2 -29,3 -53,3 h -33 v 96 z m 51,-211 v 72 h 28 c 20,0 34,-1 40,-4 7,-2 12,-7 16,-12 4,-6 6,-13 6,-20 0,-9 -3,-17 -8,-23 -5,-6 -12,-10 -20,-11 -7,-1 -19,-2 -37,-2 z m 386,211 h -55 l -22,-57 h -101 l -21,57 h -54 l 98,-254 h 54 z m -94,-100 -35,-95 -34,95 z m 121,100 v -254 h 108 c 27,0 46,2 59,7 12,4 22,13 29,24 7,12 11,25 11,40 0,19 -6,35 -17,48 -11,12 -28,20 -50,23 11,7 20,14 28,21 7,8 16,22 29,42 l 30,49 h -61 l -36,-55 c -14,-20 -22,-32 -27,-37 -5,-6 -10,-9 -16,-11 -5,-2 -14,-3 -25,-3 h -11 v 106 z m 51,-146 h 38 c 25,0 40,-1 46,-4 6,-2 11,-5 14,-10 4,-5 5,-12 5,-19 0,-9 -2,-16 -6,-21 -5,-5 -11,-9 -20,-10 -4,-1 -16,-1 -37,-1 h -40 z m 432,146 h -56 l -22,-57 h -101 l -21,57 h -54 l 99,-254 h 54 z m -94,-100 -35,-95 -34,95 z m 121,100 v -254 h 50 l 103,170 v -170 h 48 v 254 h -51 l -102,-166 v 166 z m 482,0 h -55 l -22,-57 h -101 l -21,57 h -54 l 98,-254 h 54 z m -93,-100 -35,-95 -34,95 z m -65,-169 24,-51 h 54 l -47,51 z"
   id="path1012" />
   <polygon
   class="fil1"
   points="5996,584 5996,1046 4383,1046 4383,2931 3795,2931 3795,584 "
   id="polygon1014" />
   <path
   class="fil0"
   d="M 6247,2924 V 1178 h 566 c 214,0 354,9 419,26 100,26 184,83 252,171 67,88 101,201 101,340 0,107 -19,198 -58,270 -40,74 -89,131 -149,173 -60,41 -121,69 -182,82 -85,17 -207,26 -366,26 h -230 v 658 z m 353,-1451 v 496 h 193 c 139,0 232,-9 279,-28 46,-18 83,-46 110,-85 26,-39 40,-85 40,-136 0,-64 -19,-116 -57,-158 -37,-41 -84,-67 -141,-77 -42,-8 -127,-12 -254,-12 z"
   id="path1016" />
   <path
   class="fil0"
   d="M 7689,2924 V 1178 h 743 c 186,0 322,16 406,47 85,31 153,87 203,167 51,81 77,172 77,275 0,131 -39,240 -116,325 -77,85 -192,139 -346,161 77,45 140,94 189,147 50,53 117,148 201,284 l 213,340 h -421 l -255,-380 c -91,-136 -153,-221 -186,-257 -33,-35 -69,-59 -106,-72 -38,-13 -97,-20 -178,-20 h -71 v 729 z m 353,-1008 h 261 c 169,0 275,-7 317,-21 42,-14 75,-39 99,-74 23,-35 35,-78 35,-131 0,-59 -15,-106 -47,-142 -31,-36 -75,-59 -133,-69 -28,-4 -114,-6 -257,-6 h -275 z"
   id="path1018" />
  </g>
  <g
   id="g1023">
   <polygon
   class="fil2"
   points="24,3753 9313,3753 9313,3935 24,3935 "
   id="polygon1021" />
  </g>
  <path
   class="fil2"
   d="m 316,4776 84,27 c -13,47 -35,82 -65,105 -30,23 -68,34 -114,34 -58,0 -105,-19 -142,-58 -36,-39 -55,-93 -55,-161 0,-72 19,-128 56,-167 37,-40 86,-60 146,-60 53,0 96,16 129,47 19,18 34,45 44,79 l -86,21 c -5,-22 -16,-40 -32,-53 -17,-13 -36,-19 -59,-19 -32,0 -58,11 -78,34 -20,23 -30,60 -30,112 0,54 10,93 29,116 20,23 45,35 77,35 23,0 43,-7 60,-22 16,-15 28,-38 36,-70 z m 548,159 h -95 l -38,-98 H 559 l -36,98 h -92 l 168,-432 h 92 z m -161,-171 -59,-160 -58,160 z m 206,171 v -432 h 130 l 79,295 77,-295 h 131 v 432 h -81 v -340 l -86,340 h -84 l -85,-340 v 340 z m 503,0 v -432 h 140 c 53,0 87,3 104,7 24,6 45,20 62,42 16,22 25,50 25,84 0,27 -5,49 -15,67 -9,18 -22,32 -36,43 -15,10 -30,17 -46,20 -20,4 -50,6 -90,6 h -57 v 163 z m 87,-359 v 123 h 48 c 34,0 57,-2 69,-7 11,-4 20,-11 27,-21 7,-10 10,-21 10,-34 0,-15 -5,-28 -14,-39 -9,-10 -21,-16 -35,-19 -10,-2 -31,-3 -63,-3 z m 315,-73 h 87 v 234 c 0,37 1,61 3,72 4,18 13,32 27,43 14,11 33,16 57,16 25,0 44,-5 56,-15 13,-10 20,-23 23,-37 2,-15 4,-40 4,-74 v -239 h 87 v 227 c 0,52 -3,89 -7,110 -5,21 -14,39 -26,54 -13,15 -30,27 -51,35 -21,9 -49,13 -83,13 -41,0 -73,-4 -94,-14 -21,-9 -38,-22 -50,-37 -13,-15 -21,-31 -25,-48 -6,-25 -8,-61 -8,-109 z m 413,292 85,-9 c 5,29 16,50 31,63 16,13 37,20 63,20 28,0 50,-6 64,-18 14,-12 21,-25 21,-41 0,-11 -3,-19 -9,-26 -6,-8 -16,-14 -31,-19 -10,-4 -34,-10 -70,-19 -47,-12 -79,-26 -98,-43 -27,-23 -40,-52 -40,-87 0,-22 6,-42 19,-61 12,-19 30,-34 54,-44 23,-10 51,-15 84,-15 55,0 95,12 123,36 27,23 42,55 43,95 l -87,4 c -4,-23 -12,-39 -24,-48 -12,-10 -31,-15 -55,-15 -26,0 -46,5 -60,16 -9,6 -14,15 -14,27 0,10 5,19 13,26 11,9 38,19 80,29 43,10 74,20 94,31 21,10 37,25 48,44 12,18 17,41 17,68 0,25 -7,48 -20,70 -14,21 -33,37 -59,48 -25,10 -56,16 -94,16 -54,0 -96,-13 -125,-38 -29,-25 -47,-62 -53,-110 z m 868,-19 85,27 c -13,47 -35,82 -65,105 -30,23 -68,34 -115,34 -57,0 -104,-19 -141,-58 -37,-39 -55,-93 -55,-161 0,-72 18,-128 55,-167 37,-40 86,-60 147,-60 52,0 95,16 128,47 20,18 35,45 44,79 l -86,21 c -5,-22 -16,-40 -32,-53 -16,-13 -36,-19 -59,-19 -32,0 -58,11 -78,34 -20,23 -29,60 -29,112 0,54 9,93 29,116 20,23 45,35 76,35 24,0 43,-7 60,-22 17,-15 29,-38 36,-70 z m 142,-54 c 0,-44 6,-81 19,-111 10,-22 24,-42 41,-59 17,-17 35,-30 55,-39 27,-11 58,-17 93,-17 64,0 115,20 153,59 38,40 57,95 57,165 0,70 -19,124 -57,163 -38,40 -88,59 -151,59 -65,0 -116,-19 -154,-58 -37,-39 -56,-93 -56,-162 z m 89,-3 c 0,49 12,86 34,111 23,25 51,38 86,38 35,0 63,-13 86,-38 22,-25 33,-62 33,-112 0,-50 -11,-87 -32,-111 -22,-24 -51,-36 -87,-36 -36,0 -65,12 -87,37 -22,24 -33,61 -33,111 z m 397,216 v -432 h 184 c 46,0 79,4 100,12 21,8 38,22 51,41 12,20 18,43 18,68 0,33 -9,60 -28,81 -19,21 -48,34 -86,40 19,11 35,23 47,36 12,13 29,36 50,70 l 52,84 h -104 l -63,-94 c -22,-33 -37,-55 -46,-63 -8,-9 -17,-15 -26,-18 -9,-4 -24,-5 -44,-5 h -17 v 180 z m 88,-249 h 64 c 42,0 68,-2 78,-5 11,-4 19,-10 25,-19 6,-8 9,-19 9,-32 0,-15 -4,-26 -12,-35 -8,-9 -19,-15 -33,-17 -7,-1 -28,-2 -63,-2 h -68 z m 348,249 v -432 h 85 l 177,289 v -289 h 81 v 432 h -88 l -174,-281 v 281 z m 435,0 v -432 h 320 v 73 h -233 v 96 h 217 v 73 h -217 v 117 h 241 v 73 z m 110,-456 41,-88 h 93 l -81,88 z m 294,456 v -428 h 87 v 355 h 217 v 73 z m 363,0 v -432 h 87 v 432 z m 153,-213 c 0,-44 6,-81 20,-111 9,-22 23,-42 40,-59 17,-17 35,-30 55,-39 27,-11 58,-17 94,-17 63,0 114,20 152,59 38,40 57,95 57,165 0,70 -19,124 -56,163 -38,40 -89,59 -152,59 -64,0 -116,-19 -153,-58 -38,-39 -57,-93 -57,-162 z m 90,-3 c 0,49 11,86 33,111 23,25 52,38 86,38 35,0 64,-13 86,-38 22,-25 33,-62 33,-112 0,-50 -11,-87 -32,-111 -22,-24 -51,-36 -87,-36 -36,0 -64,12 -86,37 -22,24 -33,61 -33,111 z m 564,216 v -432 h 140 c 53,0 87,3 103,7 25,6 46,20 62,42 17,22 25,50 25,84 0,27 -4,49 -14,67 -10,18 -22,32 -37,43 -15,10 -30,17 -45,20 -21,4 -51,6 -90,6 h -57 v 163 z m 87,-359 v 123 h 48 c 34,0 57,-2 68,-7 12,-4 21,-11 28,-21 6,-10 10,-21 10,-34 0,-15 -5,-28 -14,-39 -9,-10 -21,-16 -35,-19 -11,-2 -32,-3 -63,-3 z m 315,359 v -432 h 184 c 46,0 79,4 100,12 21,8 38,22 50,41 13,20 19,43 19,68 0,33 -10,60 -29,81 -18,21 -47,34 -85,40 19,11 35,23 47,36 12,13 29,36 49,70 l 53,84 h -104 l -63,-94 c -22,-33 -38,-55 -46,-63 -8,-9 -17,-15 -26,-18 -9,-4 -24,-5 -44,-5 h -18 v 180 z m 87,-249 h 65 c 41,0 68,-2 78,-5 10,-4 19,-10 24,-19 6,-8 9,-19 9,-32 0,-15 -4,-26 -11,-35 -8,-9 -19,-15 -33,-17 -7,-1 -28,-2 -64,-2 h -68 z m 331,36 c 0,-44 6,-81 19,-111 10,-22 23,-42 40,-59 17,-17 36,-30 56,-39 27,-11 58,-17 93,-17 64,0 115,20 153,59 38,40 57,95 57,165 0,70 -19,124 -57,163 -38,40 -88,59 -152,59 -64,0 -115,-19 -153,-58 -38,-39 -56,-93 -56,-162 z m 89,-3 c 0,49 12,86 34,111 23,25 51,38 86,38 35,0 63,-13 86,-38 22,-25 33,-62 33,-112 0,-50 -11,-87 -33,-111 -21,-24 -50,-36 -86,-36 -36,0 -65,12 -87,37 -22,24 -33,61 -33,111 z m 673,57 85,27 c -13,47 -35,82 -65,105 -30,23 -68,34 -115,34 -57,0 -104,-19 -141,-58 -37,-39 -55,-93 -55,-161 0,-72 18,-128 55,-167 37,-40 86,-60 147,-60 52,0 95,16 128,47 20,18 35,45 44,79 l -86,21 c -5,-22 -16,-40 -32,-53 -16,-13 -36,-19 -59,-19 -32,0 -58,11 -78,34 -20,23 -30,60 -30,112 0,54 10,93 30,116 20,23 45,35 76,35 24,0 43,-7 60,-22 17,-15 29,-38 36,-70 z m 142,-54 c 0,-44 6,-81 19,-111 10,-22 24,-42 41,-59 17,-17 35,-30 55,-39 27,-11 58,-17 93,-17 64,0 115,20 153,59 38,40 57,95 57,165 0,70 -19,124 -57,163 -38,40 -88,59 -151,59 -65,0 -116,-19 -154,-58 -37,-39 -56,-93 -56,-162 z m 89,-3 c 0,49 12,86 34,111 23,25 51,38 86,38 35,0 63,-13 86,-38 22,-25 33,-62 33,-112 0,-50 -11,-87 -32,-111 -22,-24 -51,-36 -87,-36 -36,0 -65,12 -87,37 -22,24 -33,61 -33,111 z m 66,-240 41,-88 h 93 l -81,88 z m 331,456 v -432 h 140 c 53,0 87,3 104,7 24,6 45,20 62,42 16,22 25,50 25,84 0,27 -5,49 -15,67 -9,18 -22,32 -36,43 -15,10 -30,17 -46,20 -20,4 -50,6 -90,6 h -57 v 163 z m 87,-359 v 123 h 48 c 34,0 57,-2 69,-7 11,-4 20,-11 27,-21 7,-10 10,-21 10,-34 0,-15 -5,-28 -14,-39 -9,-10 -21,-16 -35,-19 -10,-2 -31,-3 -63,-3 z m 313,359 v -432 h 87 v 432 z m 152,-213 c 0,-44 7,-81 20,-111 10,-22 23,-42 40,-59 17,-17 35,-30 56,-39 27,-11 58,-17 93,-17 63,0 114,20 152,59 38,40 58,95 58,165 0,70 -19,124 -57,163 -38,40 -89,59 -152,59 -64,0 -115,-19 -153,-58 -38,-39 -57,-93 -57,-162 z m 90,-3 c 0,49 11,86 34,111 22,25 51,38 86,38 34,0 63,-13 85,-38 22,-25 33,-62 33,-112 0,-50 -10,-87 -32,-111 -22,-24 -51,-36 -86,-36 -36,0 -65,12 -87,37 -22,24 -33,61 -33,111 z"
   id="path1025" />
  <g
   id="g1029">
   <polygon
   class="fil3"
   points="24,4044 9313,4044 9313,4227 24,4227 "
   id="polygon1027" />
  </g>
 </g></g>
<g
   id="g76">
	<defs
   id="defs71">
		<rect
   id="SVGID_1_"
   x="0.15"
   y="-0.49"
   width="832.18"
   height="89.17" />
	</defs>
	<clipPath
   id="SVGID_2_">
		<use
   xlink:href="#SVGID_1_"
   style="overflow:visible;"
   id="use73" />
	</clipPath>
</g>

<g
   id="g1755"
   transform="matrix(0.21124445,0,0,0.21124445,778.71494,6.2502291)"><path
     fill-rule="evenodd"
     clip-rule="evenodd"
     d="m 48.859,43.518 c 8.424,17.64 2.736,140.832 -7.128,184.032 -9.864,43.272 -19.728,98.28 -22.032,144.576 -1.008,19.728 2.016,27.504 14.904,27.504 22.752,0 51.624,-47.952 87.84,-46.872 36.288,1.08 47.808,55.008 64.8,54.648 16.992,-0.36 30.672,-6.264 30.816,-58.752 C 218.563,191.981 87.235,64.973 48.859,43.518 Z"
     id="path1694" /><path
     fill-rule="evenodd"
     clip-rule="evenodd"
     d="m 162.763,168.726 c 7.992,13.464 28.368,3.096 29.232,-12.096 0.864,-15.192 -1.368,-34.344 -11.232,-35.064 -9.864,-0.72 -16.92,-10.584 -26.784,-11.304 -9.864,-0.72 -20.448,9.144 -25.056,-3.96 -4.608,-13.104 12.384,-18.648 25.056,-20.736 -11.304,-11.304 -17.928,-23.832 -22.896,-36.864 -4.968,-13.032 -8.64,-24.984 5.256,-30.096 13.896,-5.112 12.744,21.168 28.656,33.192 -4.68,-17.712 -6.408,-25.056 -6.048,-35.352 0.36,-10.296 -0.36,-18.144 14.256,-16.128 14.616,2.016 8.28,32.4 19.656,44.784 3.456,-11.736 5.544,-26.64 13.896,-32.76 8.352,-6.12 27.36,-6.264 15.264,18.864 -12.096,25.128 3.528,38.736 -0.144,58.536 -3.672,19.8 -15.048,16.2 -19.944,28.944 -4.896,12.744 2.88,41.76 -6.336,54.792 -9.216,13.032 -10.872,33.048 -4.896,49.032 -18.36,-17.136 -27.936,-53.784 -27.936,-53.784 z"
     id="path1696" /><path
     fill-rule="evenodd"
     clip-rule="evenodd"
     d="m 48.355,185.646 c -7.416,50.832 -33.192,56.88 -34.488,77.976 -1.296,21.096 6.84,23.112 6.336,42.624 -0.504,19.512 -17.856,27.432 -19.944,38.016 -2.088,10.584 8.928,13.968 15.336,13.968 6.408,0 12.816,-28.08 15.408,-45.936 2.592,-17.856 -8.496,-28.368 -8.496,-40.608 0,-12.24 16.056,-34.632 13.104,-14.976 13.32,-21.024 19.657,-47.809 12.744,-71.064 z"
     id="path1698" /><path
     fill-rule="evenodd"
     clip-rule="evenodd"
     fill="#ffffff"
     d="m 58.292,205.013 c -5.616,27.504 -40.68,181.08 -22.824,183.024 17.856,1.944 43.272,-47.52 84.888,-47.16 41.688,0.36 58.104,55.44 68.256,55.08 10.152,-0.36 16.848,3.6 17.928,-58.464 1.08,-62.064 -36.792,-141.336 -59.184,-176.256 -30.385,1.944 -63.073,26.281 -89.064,43.776 z"
     id="path1700" /><g
     id="g1729">
	<path
   fill="none"
   d="m 139.162,172.181 c -1.95,-18.251 -19.12,-25.421 -35.661,-23.168 -13.889,1.893 -32.403,13.613 -34.107,28.64 -1.921,16.937 11.402,32.522 28.361,33.203 15.03,0.604 31.176,-6.668 37.93,-20.79 2.73,-5.704 3.797,-11.578 3.477,-17.885"
   id="path1702" />
	<path
   d="m 147.082,171.533 c -1.662,-17.195 -14.407,-27.988 -30.895,-30.627 -15.924,-2.549 -33.26,4.998 -44.408,16.146 -12.538,12.538 -13.039,29.978 -4.26,44.833 8.661,14.657 27.847,19.501 43.563,15.835 21.506,-5.015 37.398,-23.824 36,-46.187"
   id="path1704" />
	<radialGradient
   id="SVGID_1_-6"
   cx="86.629898"
   cy="167.06931"
   r="54.7155"
   gradientUnits="userSpaceOnUse">
		<stop
   offset="0"
   style="stop-color:#FFFFFF"
   id="stop1706" />
		<stop
   offset="0.0604"
   style="stop-color:#FBC8B4"
   id="stop1708" />
		<stop
   offset="0.0712"
   style="stop-color:#FBC3B0"
   id="stop1710" />
		<stop
   offset="0.1829"
   style="stop-color:#F7978B"
   id="stop1712" />
		<stop
   offset="0.2995"
   style="stop-color:#F4716B"
   id="stop1714" />
		<stop
   offset="0.4199"
   style="stop-color:#F15251"
   id="stop1716" />
		<stop
   offset="0.5453"
   style="stop-color:#EF3A3D"
   id="stop1718" />
		<stop
   offset="0.6778"
   style="stop-color:#EE292F"
   id="stop1720" />
		<stop
   offset="0.822"
   style="stop-color:#ED1F27"
   id="stop1722" />
		<stop
   offset="1"
   style="stop-color:#ED1C24"
   id="stop1724" />
	</radialGradient>
	<path
   fill="url(#SVGID_1_)"
   stroke="#000000"
   d="m 139.162,177.941 c -1.493,15.627 -13.947,28.182 -28.944,31.824 -15.87,3.854 -33.393,-2.257 -39.096,-18.576 -2.912,-8.332 -2.37,-16.879 2.637,-24.198 4.223,-6.171 11.033,-11 17.779,-14.066 13.924,-6.326 33.832,-7.029 43.531,7.077 3.675,5.346 4.318,11.639 4.093,17.939"
   id="path1727"
   style="fill:url(#SVGID_1_-6)" />
</g></g></svg>
